<svg fill="none" xmlns="http://www.w3.org/2000/svg" viewBox="0 0 16 16"><path d="M8 0a8 8 0 1 0 0 16A8 8 0 0 0 8 0ZM6.37 12.2a4.29 4.29 0 0 1-2.18-1.88 4.38 4.38 0 0 1-.48-2.89 4.34 4.34 0 0 1 1.47-2.52A4.3 4.3 0 0 1 8 3.8v.9a3.4 3.4 0 0 0-2.4 1 3.42 3.42 0 0 0-1 2.44 3.42 3.42 0 0 0 1.05 2.41l-.28.64Zm5.81-1.88a4.29 4.29 0 0 1-2.18 1.88l-.28-.65a3.42 3.42 0 0 0 1.05-2.4 3.42 3.42 0 0 0-1-2.44A3.4 3.4 0 0 0 8 5.7h-.01v1.6L5.3 4.6 8 1.9v1.01a4.3 4.3 0 0 1 2.82 1.1 4.34 4.34 0 0 1 1.47 2.53 4.38 4.38 0 0 1-.48 2.89l-.63-.11Z" fill="#666"/></svg>
