<svg fill="none" xmlns="http://www.w3.org/2000/svg" viewBox="0 0 16 16"><path fill-rule="evenodd" clip-rule="evenodd" d="M1.5 1C1.22386 1 1 1.22386 1 1.5V5.5C1 5.77614 1.22386 6 1.5 6H5.5C5.77614 6 6 5.77614 6 5.5V1.5C6 1.22386 5.77614 1 5.5 1H1.5ZM2 5V2H5V5H2ZM1.5 7C1.22386 7 1 7.22386 1 7.5V14.5C1 14.7761 1.22386 15 1.5 15H5.5C5.77614 15 6 14.7761 6 14.5V7.5C6 7.22386 5.77614 7 5.5 7H1.5ZM2 14V8H5V14H2ZM7 1.5C7 1.22386 7.22386 1 7.5 1H14.5C14.7761 1 15 1.22386 15 1.5V5.5C15 5.77614 14.7761 6 14.5 6H7.5C7.22386 6 7 5.77614 7 5.5V1.5ZM8 2V5H14V2H8ZM7.5 7C7.22386 7 7 7.22386 7 7.5V14.5C7 14.7761 7.22386 15 7.5 15H14.5C14.7761 15 15 14.7761 15 14.5V7.5C15 7.22386 14.7761 7 14.5 7H7.5ZM8 14V8H14V14H8Z" fill="#666"/></svg>
