<svg fill="none" xmlns="http://www.w3.org/2000/svg" viewBox="0 0 16 16"><path fill-rule="evenodd" clip-rule="evenodd" d="M8 0.5C3.86 0.5 0.5 3.86 0.5 8C0.5 12.14 3.86 15.5 8 15.5C12.14 15.5 15.5 12.14 15.5 8C15.5 3.86 12.14 0.5 8 0.5ZM7.5 1.53V5.5H4.27A6.52 6.52 0 0 1 7.5 1.53ZM8.5 1.53V5.5H11.73A6.52 6.52 0 0 0 8.5 1.53ZM11.89 6.5H8.5V9.5H11.89A6.57 6.57 0 0 0 12 8C12 7.49 11.96 6.99 11.89 6.5ZM10.95 10.5H8.5V14.47A6.52 6.52 0 0 0 10.95 10.5ZM7.5 14.47V10.5H5.05A6.52 6.52 0 0 0 7.5 14.47ZM4.11 9.5H7.5V6.5H4.11A6.57 6.57 0 0 0 4 8C4 8.51 4.04 9.01 4.11 9.5ZM3.12 6.5A7.04 7.04 0 0 0 3 8C3 8.52 3.04 9.02 3.12 9.5H1.59A6.5 6.5 0 0 1 1.5 8C1.5 7.49 1.53 6.99 1.59 6.5H3.12ZM1.77 10.5H3A7.53 7.53 0 0 0 5.25 13.76A6.52 6.52 0 0 1 1.77 10.5ZM10.75 13.76A7.53 7.53 0 0 0 13 10.5H14.23A6.52 6.52 0 0 1 10.75 13.76ZM14.41 9.5H12.88A7.04 7.04 0 0 0 13 8C13 7.48 12.96 6.98 12.88 6.5H14.41A6.5 6.5 0 0 1 14.5 8C14.5 8.51 14.47 9.01 14.41 9.5ZM12.88 5.5H14.23A6.52 6.52 0 0 0 10.75 2.24A7.53 7.53 0 0 1 13 5.5H12.88ZM5.25 2.24A6.52 6.52 0 0 0 1.77 5.5H3A7.53 7.53 0 0 1 5.25 2.24Z" fill="black"/></svg>
