<svg xmlns="http://www.w3.org/2000/svg" fill="none" viewBox="0 0 394 80"><path fill="#000" d="M262 0h68.5v12.7h-27.2v66.6h-13.6V12.7H262V0ZM149 0v12.7H94v20.4h44.3v12.6H94v21h55v12.6H80.5V0h68.7zm34.3 0h-17.8l63.8 79.4h17.9l-32-39.7 32-39.6h-17.9l-23 28.6-23-28.6zm18.3 56.7-9-11-27.1 33.7h17.8l18.3-22.7z"/><path fill="#000" d="M81 79.3 17 0H0v79.3h13.6V17l50.2 62.3H81Zm252.6-.4c-1 0-1.8-.4-2.5-1s-1.1-1.6-1.1-2.6.3-1.8 1-2.5 1.6-1 2.6-1 1.8.3 2.5 1a3.4 3.4 0 0 1 .6 4.3 3.7 3.7 0 0 1-3 1.8zm23.2-33.5h6v23.3c0 2.1-.4 4-1.3 5.5a9.1 9.1 0 0 1-3.8 3.5c-1.6.8-3.5 1.3-5.7 1.3-2 0-3.7-.4-5.3-1s-2.8-1.8-3.7-3.2c-.9-1.3-1.4-3-1.4-5h6.3c.1 1.3.6 2.3 1.3 3.1a4.5 4.5 0 0 0 3.2 1.1c1.3 0 2.4-.4 3.1-1.3.8-.9 1.1-2.2 1.1-3.8V45.4zm30.8 23.6c-3 0-5.5-.6-7.7-1.8a12.5 12.5 0 0 1-5-5.2c-1.2-2.2-1.7-4.7-1.7-7.7s.6-5.6 1.8-7.8c1.2-2.1 2.8-3.8 5-5 2-1.2 4.5-1.8 7.3-1.8a13 13 0 0 1 5.4 1 11.2 11.2 0 0 1 4 3c1 1.4 1.8 3 2.2 5h-6.2a5.7 5.7 0 0 0-2-3.2c-1-.9-2.2-1.3-3.7-1.3-1.3 0-2.5.3-3.5 1a7.1 7.1 0 0 0-2.4 3c-.6 1.3-.8 2.8-.8 4.6 0 1.7.3 3.2.8 4.6a7 7 0 0 0 2.4 3c1 .8 2.2 1.1 3.5 1.1 1 0 1.8-.2 2.5-.5.7-.4 1.4-1 1.8-1.7.5-.7.8-1.6 1-2.6h6c-.3 2-1 3.6-2 5.1a11 11 0 0 1-4 3.5 12.7 12.7 0 0 1-5.6 1.2z"/></svg>
