<svg xmlns="http://www.w3.org/2000/svg" fill="none" viewBox="0 0 283 64"><path fill="black" d="M141 16c-11 0-19 7-19 18s9 18 20 18c7 0 13-3 16-7l-7-5c-2 3-6 4-9 4-5 0-9-3-10-7h28v-3c0-11-8-18-19-18zm-9 15c1-4 4-7 9-7s8 3 9 7h-18zm117-15c-11 0-19 7-19 18s9 18 20 18c7 0 13-3 16-7l-7-5c-2 3-6 4-9 4-5 0-9-3-10-7h28v-3c0-11-8-18-19-18zm-9 15c1-4 4-7 9-7s8 3 9 7h-18zm-39 3c0 6 4 10 10 10 4 0 7-2 8-4l7 5c-3 5-9 7-15 7-11 0-19-7-19-18s8-18 18-18c7 0 13 3 15 8l-7 5c-1-3-4-5-8-5-6 0-10 4-10 10zm83-11v-4h-8V9h-9v11h-6v8h6v15c0 8 6 11 14 11 2 0 4 0 5-1v-8c-1 0-2 1-4 1-3 0-5-1-5-5V27h8zM275 9v45h9V9h-9zm-21 0l-13 34-13-34h-10l18 45h10l18-45h-10zm-60 18a9 9 0 00-8 5V16h-9v38h9V36c0-5 3-8 8-8 4 0 6 2 6 7v19h9V33c0-9-5-14-14-14z"/></svg>
